<?xml version="1.0" encoding="UTF-8" standalone="no"?>
<svg width="493px" height="493px" viewBox="0 0 493 493" version="1.1" xmlns="http://www.w3.org/2000/svg" xmlns:xlink="http://www.w3.org/1999/xlink" style="background: #000000;">
    <!-- Generator: Sketch 47.1 (45422) - http://www.bohemiancoding.com/sketch -->
    <title>Artboard</title>
    <desc>Created with Sketch.</desc>
    <defs></defs>
    <g id="Page-1" stroke="none" stroke-width="1" fill="none" fill-rule="evenodd">
        <g id="Artboard" fill-rule="nonzero" fill="#FFFFFF">
            <path d="M211,417.109535 L211,368.071015 C184.13038,360.801674 162.483803,344.436859 145.531933,321.602649 L153.56117,315.64183 C169.255923,336.782703 191.605143,351.672645 216.505324,358.301401 C216.825244,358.386568 220.679247,359.306923 221,359.389359 L221,419.090024 C221.074923,425.902068 221,421.235148 221,429.023153 C220.953292,429.015644 217.463599,428.519747 217.416902,428.512202 C136.980744,415.516827 72.63097,350.427153 63.0492996,267.342768 C63.0183558,267.074449 62.2558908,262.612189 62,257 C65.8747492,257 68.6747572,257 71.7891639,257 C71.7903428,257.010274 71.7942101,257.041123 71.8005089,257.090578 L71.7891639,257 L181.726747,257 C181.247732,253.79339 181,250.460686 181,247 C181,218.079592 199.88736,193.570564 226,185.134994 L226,72.2454144 C155.788889,80.6517089 98.3828184,130.774419 79.017614,197 L131.391662,197 C140.009337,177.245159 153.690523,159.906783 171.314303,146.755911 L177.294796,154.770504 C159.308746,168.191702 145.788949,186.32938 138.136457,207 C138.090489,207 138.044737,206.999593 137.9992,206.998784 L138,207 L120.613824,207 L70,207 L70,197 L79.017614,197 C78.0542504,200.294533 77.1850295,203.628918 76.4130582,207 C70.419,207 74.0734528,207 66.1334013,207 C83.3264896,127.028862 152.112436,66.195117 236,61.3160869 C236,65.2116326 236,68.1960083 236,71.338125 C232.640035,71.546291 229.305824,71.8496119 226,72.2454144 L226,67 L236,67 L236,182.764482 C239.259699,182.261147 242.599352,182 246,182 C274.920408,182 299.429436,200.88736 307.865006,227 L421.196423,227 C413.463891,155.921505 362.843255,97.648565 296,78.1085636 L296,132.41282 C315.774042,141.046227 333.159362,154.749898 346.303874,172.394488 L338.284515,178.368589 C324.861187,160.34973 306.694583,146.804803 286,139.140853 C286,131.345087 286,134.888114 286,128.550003 L286,75.504401 C286,69.5103427 286,73.1647956 286,65.2247441 C365.713854,82.3625184 426.636554,150.761714 431.859823,234.282159 C431.876682,234.55173 431.984303,236.725047 432,236.994932 C431.310425,236.994932 430.645245,236.994932 430,236.994932 L430,237 L310.235518,237 C310.738853,240.259699 311,243.599352 311,247 C311,281.216149 284.562239,309.257427 251,311.810552 L251,421.09665 C327.415604,419.425618 392.777822,368.106801 414.415313,297.000011 L360.566433,297 C360.56426,297.004975 360.562087,297.009951 360.559913,297.014926 C350.15153,320.837524 332.4288,341.137098 309.523075,354.677998 L304.434194,346.069671 C327.391013,332.498567 344.683943,311.468002 353.790009,287 C360.435438,287 356.997081,287 364.431852,287 C363.284838,290.394106 361.994529,293.730228 360.566433,297 L354,297 L354,287 L423,287 L423,297 L414.415316,297 C414.687103,296.106835 414.951993,295.210536 415.209921,294.311174 C415.238997,294.209787 417.155964,287.101464 417.184864,287 C423.374351,287 419.427362,287 427.410919,287 C426.404141,291.474825 425.11057,296.192991 424.876394,297.013426 C402.943873,373.854161 332.9906,429.447911 251,431.104071 L251,452.497692 L251,461.909062 C249.160454,461.970899 248.615486,461.993719 248.421731,461.993719 C248.173082,461.993948 248.173082,461.993948 246.35784,461.995383 C245.277022,461.995903 244.566691,461.995459 244.320286,461.993572 C129.263033,461.112745 35.3456428,369.71953 31.1462444,255.002693 C31.0488214,252.341345 31,249.673492 31,247 C31,128.258779 127.258779,32 246,32 C364.741221,32 461,128.258779 461,247 C461,353.244807 383.549429,442.334159 281,459.150281 L281,479.353632 C390.945151,463.148365 476.205043,371.49857 480.89511,257.899994 C484.106539,257.899212 484.280265,257.901515 490.901515,257.900733 C485.693709,388.78266 377.914231,491.901515 246.098485,491.901515 C110.788721,491.901515 1.09848461,382.211279 1.09848461,246.901515 C1.09848461,111.591752 110.788721,1.90151539 246.098485,1.90151539 C377.740293,1.90151539 485.508602,105.106706 490.888019,235.899994 C486.256122,235.899994 485.139676,235.901515 480.879572,235.901515 C475.51418,110.637298 372.226678,11.9015154 246.098485,11.9015154 C116.311568,11.9015154 11.0984846,117.114599 11.0984846,246.901515 C11.0984846,376.688432 116.311568,481.901515 246.098485,481.901515 C254.508389,481.901515 262.816283,481.464308 271,480.611113 L271,451.944463 L271.002506,451.944463 C271.000915,451.522999 271,451.05208 271,450.521671 C366.466098,439.046734 440.819678,362.228203 450.036848,267 L338.888903,267 C332.232808,298.024163 310.353872,323.714731 281,335.344846 L281,387.688179 C319.786173,378.017248 353.256726,352.635104 372.899813,317.209781 L381.645329,322.059107 C358.574106,363.6669 317.705562,392.317716 271,399.960646 C271,392.826859 271,395.75195 271,389.810163 C274.368251,389.218658 277.703326,388.51017 281,387.688179 L281,394.963241 L271,394.963241 L271,328.289589 L270.9953,328.26413 C271.892092,328.000667 271.790352,328.02378 272.67396,327.732128 C303.711868,317.487471 326.466372,290.020915 330.393036,257.214631 L330.420152,257.217876 L330.420013,257 L450.760293,257 C450.919502,253.68584 451,250.351872 451,247 C451,140.529403 369.832662,53.0164535 266,42.9631656 L266,154.144163 C278.855611,157.054331 291.330756,162.552157 301.547851,169.92244 C311.567927,177.1506 320.177688,186.325539 326.793232,197 L381.991258,197 C369.986955,164.2055 346.357365,136.458834 315,119.399994 L319.778765,110.699997 C357.467132,131.20299 384.92354,166.17052 395.799988,207 C391.438502,207 387.91998,207 385.244421,207 L321,207 C308.029651,182.369753 283.886213,165.883954 256,162.591026 L256,152.443181 L256,42.2396321 C252.686762,42.0804882 249.35278,42 246,42 C139.529403,42 52.0164535,123.167338 41.9631656,227 L153.093384,227 C158.502656,201.678265 174.08891,179.702633 196,166.1229 L196,110.821119 C163.227902,122.825794 135.597705,146.454858 118.53943,177.811184 L109.755159,173.032419 C130.258152,135.344053 165.17052,108.096449 206,97.2200012 C206,103.76223 206,100.844832 206,107.566763 L206,172 L205.84258,172 C181.704106,184.910612 165.184075,208.6499 161.689404,236.007432 L161.655178,237 L41.2396321,237 C41.0804882,240.313238 41,243.64722 41,247 C41,249.551512 41.0465895,252.097404 41.1395509,254.636872 C45.1019366,362.879127 132.85103,449.349308 241,451.940193 L241,341.877733 C233.659516,341.507546 226.451158,340.299346 219.47881,338.287823 C196.796531,331.743981 177.411665,316.909543 165.067493,297 L109.805181,297 C123.542193,334.358751 152.203586,364.812632 189.340076,380.582297 L185.43147,389.786797 C141.700183,371.216711 108.964286,333.644755 96.4426714,288.078662 C96.425442,288.015964 96.2443332,287.062728 96.2271803,287 C103.194292,287 100.640904,287 106.485975,287 C106.614201,287.448351 106.744526,287.72537 106.87694,288.172027 C107.760937,291.153924 108.738025,294.097797 109.805181,297 L100,297 L100,287 L170.758993,287 L170.821841,286.966452 C170.827811,286.977636 170.833783,286.988819 170.839758,287 L171,287 L171,287.298438 C181.81309,307.340984 200.31644,322.35163 222.250759,328.679686 C228.325755,330.432323 234.602926,331.50331 240.999999,331.86354 L241,281.645556 C224.038529,279.219407 211,264.63236 211,247 C211,227.670034 226.670034,212 246,212 C265.329966,212 281,227.670034 281,247 C281,256.554024 277.368419,264.531397 271.358148,271.005595 C264.818998,265.005099 269.460497,269.176311 264.029376,264.201986 C268.431459,259.46011 271,253.817881 271,247 C271,233.192881 259.807119,222 246,222 C232.192881,222 221,233.192881 221,247 C221,260.807119 232.192881,272 246,272 L251,272 L251,301.775785 C279.0325,299.249641 301,275.690213 301,247 C301,216.624339 276.375661,192 246,192 C215.624339,192 191,216.624339 191,247 C191,261.747443 196.241842,273.562704 205.079372,282.987125 C209.558312,287.763507 213.526924,290.685203 218.572479,293.712535 L213.427521,302.287465 C211.064718,300.869782 209.459286,299.837527 207.233209,298.198686 C203.943547,295.776834 200.770117,293.010958 197.784825,289.827416 C191.635707,283.269942 186.926936,275.677054 184.08352,267 L73.0825821,267 C82.1614139,342.350853 139.03197,401.926578 211,417.109535 Z" id="Combined-Shape"></path>
        </g>
    </g>
</svg>